HIERARCHY
ROOT Hips
{
	OFFSET -0.001795 -0.223333 0.028219
	CHANNELS 6 Xposition Yposition Zposition Zrotation Yrotation Xrotation 
	JOINT LeftUpLeg
	{
		OFFSET 0.069520 -0.091406 -0.006815
		CHANNELS 3 Zrotation Yrotation Xrotation
		JOINT LeftLeg
		{
			OFFSET 0.034277 -0.375199 -0.004496
			CHANNELS 3 Zrotation Yrotation Xrotation
			JOINT LeftFoot
			{
				OFFSET -0.013596 -0.397961 -0.043693
				CHANNELS 3 Zrotation Yrotation Xrotation
				JOINT LeftToe
				{
					OFFSET 0.026358 -0.055791 0.119288
					CHANNELS 3 Zrotation Yrotation Xrotation
					End Site
					{
						OFFSET 0.000000 0.000000 0.000000
					}
				}
			}
		}
	}
	JOINT RightUpLeg
	{
		OFFSET -0.067670 -0.090522 -0.004320
		CHANNELS 3 Zrotation Yrotation Xrotation
		JOINT RightLeg
		{
			OFFSET -0.038290 -0.382569 -0.008850
			CHANNELS 3 Zrotation Yrotation Xrotation
			JOINT RightFoot
			{
				OFFSET 0.015774 -0.398415 -0.042312
				CHANNELS 3 Zrotation Yrotation Xrotation
				JOINT RightToe
				{
					OFFSET -0.025372 -0.048144 0.123348
					CHANNELS 3 Zrotation Yrotation Xrotation
					End Site
					{
						OFFSET 0.000000 0.000000 0.000000
					}
				}
			}
		}
	}
	JOINT Spine
	{
		OFFSET -0.002533 0.108963 -0.026696
		CHANNELS 3 Zrotation Yrotation Xrotation
		JOINT Spine1
		{
			OFFSET 0.005487 0.135180 0.001092
			CHANNELS 3 Zrotation Yrotation Xrotation
			JOINT Spine2
			{
				OFFSET 0.001457 0.052922 0.025425
				CHANNELS 3 Zrotation Yrotation Xrotation
				JOINT Neck
				{
					OFFSET -0.002778 0.213870 -0.042857
					CHANNELS 3 Zrotation Yrotation Xrotation
					JOINT Head
					{
						OFFSET 0.005152 0.064970 0.051349
						CHANNELS 3 Zrotation Yrotation Xrotation
						End Site
						{
							OFFSET 0.000000 0.000000 0.000000
						}
					}
				}
				JOINT LeftShoulder
				{
					OFFSET 0.078845 0.121749 -0.034090
					CHANNELS 3 Zrotation Yrotation Xrotation
					JOINT LeftArm
					{
						OFFSET 0.090977 0.030469 -0.008868
						CHANNELS 3 Zrotation Yrotation Xrotation
						JOINT LeftForeArm
						{
							OFFSET 0.259612 -0.012772 -0.027456
							CHANNELS 3 Zrotation Yrotation Xrotation
							JOINT LeftHand
							{
								OFFSET 0.249234 0.008986 -0.001171
								CHANNELS 3 Zrotation Yrotation Xrotation
								End Site
								{
									OFFSET 0.000000 0.000000 0.000000
								}
							}
						}
					}
				}
				JOINT RightShoulder
				{
					OFFSET -0.081759 0.118833 -0.038615
					CHANNELS 3 Zrotation Yrotation Xrotation
					JOINT RightArm
					{
						OFFSET -0.096012 0.032551 -0.009143
						CHANNELS 3 Zrotation Yrotation Xrotation
						JOINT RightForeArm
						{
							OFFSET -0.253742 -0.013329 -0.021401
							CHANNELS 3 Zrotation Yrotation Xrotation
							JOINT RightHand
							{
								OFFSET -0.255298 0.007772 -0.005559
								CHANNELS 3 Zrotation Yrotation Xrotation
								End Site
								{
									OFFSET 0.000000 0.000000 0.000000
								}
							}
						}
					}
				}
			}
		}
	}
}
MOTION
Frames: 12
Frame Time: 0.050000
0.000931 0.947325 0.022563 -1.444839 -14.924855 1.712076 2.658517 0.598776 6.445960 0.957122 0.279991 -8.479046 3.961426 9.400611 8.948505 0.000000 0.000000 0.000000 -4.086564 0.107619 3.005609 0.266265 -0.086526 -1.929167 -1.005236 -6.518511 7.197257 0.000000 0.000000 0.000000 7.584454 -0.250946 1.925907 -2.275949 0.879724 -22.790079 -2.344562 12.106110 20.645413 8.759735 -3.842491 -18.935674 0.000000 0.000000 0.000000 16.368286 10.537201 -0.975986 -2.073742 -17.760099 -1.130418 3.145777 16.442516 -0.191327 0.000000 0.000000 0.000000 -15.513343 -19.586051 -3.875046 -1.559304 8.037436 -0.427689 0.491484 -12.442891 -0.445369 0.000000 0.000000 0.000000 
0.001416 0.947141 0.021873 -1.169380 -15.142917 1.750659 2.488571 0.611112 6.471540 0.908025 0.320122 -9.073772 3.714545 9.008839 9.854160 0.000000 0.000000 0.000000 -4.016041 0.108395 2.943131 -0.120882 -0.060902 -1.856079 -0.812720 -5.955159 6.794578 0.000000 0.000000 0.000000 7.707892 -0.246614 1.864603 -2.521014 0.918843 -22.148345 -2.670163 12.656673 20.222789 9.242586 -4.068226 -19.005633 0.000000 0.000000 0.000000 15.598541 10.920351 -1.083367 -2.303901 -16.148974 -1.034814 2.496516 16.822404 -0.307138 0.000000 0.000000 0.000000 -15.018961 -20.231089 -4.175988 -1.700602 8.017354 -0.418924 0.702788 -12.048165 -0.455804 0.000000 0.000000 0.000000 
0.001930 0.947329 0.020353 -0.932940 -15.291511 1.576251 2.536832 0.615073 6.492819 0.631882 0.338789 -9.130155 3.333337 8.310470 9.765696 0.000000 0.000000 0.000000 -4.062925 0.110906 3.015164 -0.094003 -0.052726 -1.592339 -1.093620 -6.371737 6.483863 0.000000 0.000000 0.000000 7.655709 -0.232776 1.784834 -3.016857 1.031925 -21.283088 -2.895826 13.093582 19.764338 9.506029 -4.073848 -19.525889 0.000000 0.000000 0.000000 15.371469 11.410225 -1.136988 -2.495541 -15.633350 -1.001120 3.248849 16.720167 -0.201293 0.000000 0.000000 0.000000 -14.675114 -19.909375 -4.221456 -1.270496 7.629899 -0.410897 0.085208 -11.226099 -0.345768 0.000000 0.000000 0.000000 
0.002289 0.947449 0.017810 -0.947938 -16.061694 1.575989 2.642595 0.603182 6.310530 0.438949 0.336950 -8.895592 3.297828 8.153996 9.483121 0.000000 0.000000 0.000000 -3.912609 0.143104 2.152324 -0.308406 -0.010723 -0.873914 -0.792782 -5.631968 6.116740 0.000000 0.000000 0.000000 7.451612 -0.271860 2.207302 -2.983012 1.007009 -21.337761 -3.035800 14.314910 19.799696 10.319044 -4.336006 -20.320853 0.000000 0.000000 0.000000 15.036353 10.961773 -0.986437 -1.277793 -14.766382 -0.958422 4.324015 17.418338 -0.071631 0.000000 0.000000 0.000000 -14.026107 -19.646388 -4.417849 -1.361676 8.036302 -0.433736 -1.013492 -10.057099 -0.180223 0.000000 0.000000 0.000000 
0.002454 0.947619 0.014392 -0.942140 -16.280177 1.825533 2.687596 0.567640 5.960736 0.561084 0.360183 -9.384065 3.028504 7.656615 9.647588 0.000000 0.000000 0.000000 -3.469529 0.119049 1.932722 -0.510346 -0.015159 -1.301044 -0.735210 -5.579610 6.207633 0.000000 0.000000 0.000000 7.364379 -0.255453 2.006150 -3.631399 1.170261 -20.596768 -3.138028 14.480412 19.088812 9.907402 -3.983177 -20.592218 0.000000 0.000000 0.000000 15.097841 11.007864 -0.935734 0.410516 -14.635125 -0.944226 5.911838 16.741254 0.163943 0.000000 0.000000 0.000000 -14.334568 -18.238021 -4.023759 -1.351281 8.765193 -0.482871 -2.035796 -9.248885 -0.050897 0.000000 0.000000 0.000000 
0.002251 0.947538 0.010766 -0.926026 -16.709305 2.068105 2.753403 0.485281 5.098057 0.452840 0.329941 -8.776602 2.860357 7.254857 9.198290 0.000000 0.000000 0.000000 -3.124012 0.134153 1.168543 -1.104904 0.032908 -1.072153 -0.288079 -4.595279 6.006082 0.000000 0.000000 0.000000 7.071143 -0.206678 1.517170 -4.089638 1.284517 -20.168570 -3.042335 15.515579 19.165250 10.617788 -4.293863 -20.736996 0.000000 0.000000 0.000000 15.832767 10.464306 -0.572370 2.370541 -16.246598 -1.123917 8.776280 17.313431 0.561711 0.000000 0.000000 0.000000 -14.433303 -17.681704 -4.013442 -1.488360 10.294345 -0.582515 -4.050246 -6.573425 0.155756 0.000000 0.000000 0.000000 
0.001757 0.947312 0.007268 -0.982083 -17.430034 1.923650 2.841167 0.499292 5.160067 0.787929 0.320275 -8.931754 2.880312 7.282643 9.816882 0.000000 0.000000 0.000000 -2.910460 0.125598 1.098815 -0.962939 0.002499 -1.528191 0.015333 -4.568195 6.949365 0.000000 0.000000 0.000000 6.921169 -0.202699 1.558873 -4.463276 1.374257 -19.717473 -2.859229 16.110588 18.689218 10.552835 -4.446774 -19.522962 0.000000 0.000000 0.000000 16.364158 9.309615 -0.191297 4.575545 -16.541797 -1.211926 11.984683 15.393988 0.905736 0.000000 0.000000 0.000000 -15.107703 -16.312654 -3.619615 -1.883622 13.276396 -0.780539 -7.316502 -4.748676 0.382515 0.000000 0.000000 0.000000 
0.000986 0.946200 0.004040 -0.841743 -17.224969 1.524139 3.165692 0.476311 4.963901 0.558141 0.290871 -8.226900 2.253412 6.097482 9.055465 0.000000 0.000000 0.000000 -2.622292 0.082378 1.389942 -1.286973 0.019640 -1.593179 -0.339450 -4.794357 6.111326 0.000000 0.000000 0.000000 6.458420 -0.119062 0.834210 -4.864738 1.512873 -17.718973 -3.002438 16.437814 17.379674 11.569027 -5.024819 -19.303382 0.000000 0.000000 0.000000 17.136634 8.208209 0.344634 7.780376 -19.699007 -1.825394 17.299415 12.318902 1.193156 0.000000 0.000000 0.000000 -15.720768 -14.906851 -3.298533 -3.925199 16.226646 -1.005391 -10.435383 -2.499763 0.487761 0.000000 0.000000 0.000000 
0.000192 0.945054 0.000621 -0.553078 -17.376718 0.709321 2.945023 0.484645 4.899328 0.775171 0.224139 -7.353685 1.896864 5.380931 8.654217 0.000000 0.000000 0.000000 -3.212753 0.118064 1.552395 -0.623224 -0.016785 -1.509059 -0.762472 -5.761069 6.293504 0.000000 0.000000 0.000000 6.070829 -0.078879 0.604243 -5.159496 1.630552 -16.098306 -3.423918 17.000391 15.547645 11.791098 -5.241663 -18.346412 0.000000 0.000000 0.000000 17.650693 5.633985 1.122561 10.822747 -22.776270 -2.665419 26.350323 7.867451 1.054336 0.000000 0.000000 0.000000 -16.944183 -12.028627 -2.632965 -5.144693 19.899869 -1.333895 -17.013062 1.054971 0.483052 0.000000 0.000000 0.000000 
-0.000431 0.943640 -0.002822 -0.329573 -17.340734 -0.184138 3.112169 0.573538 5.770285 0.390574 0.290604 -8.029216 1.839994 5.363387 9.098724 0.000000 0.000000 0.000000 -3.393975 0.096759 2.183025 -0.101457 -0.068630 -2.102707 -1.011509 -6.467997 6.706691 0.000000 0.000000 0.000000 5.818305 -0.041204 0.390439 -5.870709 1.899665 -15.235219 -3.463984 18.284972 14.658631 12.708475 -5.925547 -17.150535 0.000000 0.000000 0.000000 20.439299 2.042833 2.439117 12.172242 -27.309042 -3.928421 34.796300 3.996767 0.107934 0.000000 0.000000 0.000000 -18.828133 -9.014996 -2.144071 -6.804954 21.814907 -1.515316 -23.321123 8.195561 -0.424362 0.000000 0.000000 0.000000 
-0.000959 0.942909 -0.006134 0.025903 -17.081626 -0.976295 2.814386 0.576585 5.686677 0.830007 0.219446 -7.346712 1.051957 3.860336 8.555404 0.000000 0.000000 0.000000 -3.790497 0.099851 2.722901 0.256012 -0.096910 -2.389378 -1.669921 -8.215665 7.696696 0.000000 0.000000 0.000000 6.162376 0.011058 0.049182 -6.580377 2.168984 -14.910755 -3.909296 18.573681 14.273751 13.871726 -6.710027 -16.915417 0.000000 0.000000 0.000000 22.150500 0.014938 3.066802 14.243725 -32.944639 -5.802298 43.436080 -3.423834 -2.764459 0.000000 0.000000 0.000000 -22.365459 -5.435041 -1.452209 -7.686772 24.046150 -1.722244 -34.081042 19.010676 -3.395471 0.000000 0.000000 0.000000 
-0.001404 0.943061 -0.009051 -0.199410 -16.102347 -1.386194 3.659525 0.632939 6.577130 0.252145 0.319351 -8.399132 0.523536 3.181421 9.508185 0.000000 0.000000 0.000000 -3.718834 0.036710 3.738022 0.951099 -0.158533 -3.436647 -2.068500 -9.366119 8.797700 0.000000 0.000000 0.000000 6.581329 0.075138 -0.434419 -7.715209 2.653795 -13.771836 -4.079432 18.615981 13.207345 15.103257 -7.424012 -16.928914 0.000000 0.000000 0.000000 26.235318 -4.129883 4.181353 16.403510 -37.885034 -7.993155 51.111889 -9.867370 -6.495882 0.000000 0.000000 0.000000 -27.114188 -2.131023 -1.029664 -7.971221 26.710239 -1.865429 -44.277029 28.021121 -7.595770 0.000000 0.000000 0.000000 
